<svg width="33" height="33" viewBox="0 0 33 33" fill="none" xmlns="http://www.w3.org/2000/svg">
<path d="M13.6829 4.02439C14.0031 4.02439 14.3102 4.15159 14.5366 4.37801C14.763 4.60442 14.8902 4.91151 14.8902 5.23171V18.1098H27.7683C28.06 18.1098 28.3419 18.2154 28.5618 18.4072C28.7817 18.5989 28.9247 18.8638 28.9643 19.1529L28.9756 19.3171C28.9756 27.3176 22.4883 33 14.4878 33C10.6454 33 6.96037 31.4736 4.24338 28.7566C1.52639 26.0396 0 22.3546 0 18.5122C0 10.5117 5.68244 4.02439 13.6829 4.02439ZM18.5122 0C22.3546 0 26.0396 1.52639 28.7566 4.24338C31.4736 6.96037 33 10.6454 33 14.4878C33 14.808 32.8728 15.1151 32.6464 15.3415C32.42 15.5679 32.1129 15.6951 31.7927 15.6951H18.5122C18.192 15.6951 17.8849 15.5679 17.6585 15.3415C17.4321 15.1151 17.3049 14.808 17.3049 14.4878V1.20732C17.3049 0.887117 17.4321 0.580031 17.6585 0.353615C17.8849 0.127199 18.192 0 18.5122 0Z" fill="#005F86"/>
</svg>
