<svg width="33" height="33" viewBox="0 0 33 33" fill="none" xmlns="http://www.w3.org/2000/svg">
<path d="M0 1.375C0 1.01033 0.144865 0.660591 0.402728 0.402728C0.660591 0.144865 1.01033 0 1.375 0C1.73967 0 2.08941 0.144865 2.34727 0.402728C2.60513 0.660591 2.75 1.01033 2.75 1.375V30.25H31.625C31.9897 30.25 32.3394 30.3949 32.5973 30.6527C32.8551 30.9106 33 31.2603 33 31.625C33 31.9897 32.8551 32.3394 32.5973 32.5973C32.3394 32.8551 31.9897 33 31.625 33H1.375C1.01033 33 0.660591 32.8551 0.402728 32.5973C0.144865 32.3394 0 31.9897 0 31.625V1.375ZM30.25 6.875C30.25 6.61965 30.1789 6.36934 30.0446 6.15212C29.9104 5.9349 29.7183 5.75936 29.4899 5.64516C29.2615 5.53097 29.0058 5.48262 28.7515 5.50556C28.4972 5.52849 28.2543 5.62179 28.05 5.775L17.7833 13.475L10.78 9.35733C10.5826 9.24111 10.3593 9.17605 10.1304 9.16804C9.90148 9.16004 9.67419 9.20935 9.46917 9.3115L4.58333 11.7535V28.4167H30.25V6.875Z" fill="#005F86"/>
</svg>
