<svg width="33" height="33" viewBox="0 0 33 33" fill="none" xmlns="http://www.w3.org/2000/svg">
<path fill-rule="evenodd" clip-rule="evenodd" d="M19.8 33H13.2C6.97785 33 3.86595 33 1.9338 31.0662C-1.96695e-07 29.134 0 26.0222 0 19.8V13.2C0 6.97785 -1.96695e-07 3.86595 1.9338 1.9338C3.86595 -1.96695e-07 6.99435 0 13.2495 0C14.2494 0 15.0496 -6.7614e-08 15.7245 0.0280499C15.703 0.16005 15.6915 0.2937 15.6915 0.43065L15.675 5.10675C15.675 6.9168 15.675 8.5173 15.8482 9.80595C16.0363 11.2035 16.467 12.6011 17.6088 13.7429C18.7473 14.8814 20.1465 15.3137 21.5441 15.5018C22.8327 15.675 24.4332 15.675 26.2432 15.675H32.9291C33 16.5561 33 17.6385 33 19.0789V19.8C33 26.0222 33 29.134 31.0662 31.0662C29.134 33 26.0222 33 19.8 33Z" fill="#005F86"/>
</svg>
