<svg width="140" height="90" viewBox="0 0 140 90" fill="none" xmlns="http://www.w3.org/2000/svg">
<path fill-rule="evenodd" clip-rule="evenodd" d="M15.417 35.0714C15.2543 35.1974 15.6495 34.8614 15.417 35.0714V35.0714Z" fill="#001830"/>
<path fill-rule="evenodd" clip-rule="evenodd" d="M18.5089 23.4584C17.114 23.2484 20.578 23.7734 18.5089 23.4584V23.4584Z" fill="#001830"/>
<path fill-rule="evenodd" clip-rule="evenodd" d="M27.0876 29.0024C25.716 28.6244 28.4825 28.6874 27.0876 29.0024V29.0024Z" fill="#001830"/>
<path fill-rule="evenodd" clip-rule="evenodd" d="M33.76 1.72322C33.5973 1.84922 33.9925 1.51322 33.76 1.72322V1.72322Z" fill="#001830"/>
<path fill-rule="evenodd" clip-rule="evenodd" d="M5.79202 2.68912C23.4609 2.98312 41.0368 1.63911 57.8455 1.61811C77.1651 1.59711 98.1353 2.37411 119.315 0.757103C122.291 0.526101 125.499 0.064101 128.405 0.00110063C131.218 -0.0408996 133.357 1.13511 135.705 0.799104C137.286 5.08313 136.309 9.72416 136.402 14.0502C136.635 25.2223 138.774 36.6043 139.355 47.5454C139.959 58.8645 138.867 69.9736 139.518 80.3476C139.704 83.3717 140.401 85.3247 139.68 87.2987C139.448 87.9287 138.634 88.2227 139.285 89.1887C128.823 90.3227 117.85 89.4827 107.528 89.1257C87.0922 88.4327 65.9128 89.1677 42.9432 88.6637C28.0874 88.3487 13.3013 89.1467 0.00312879 88.6637C-0.0898654 64.3875 1.93276 32.6353 0.398354 8.56916C0.375106 8.10715 0.0496253 7.98115 0.0728738 7.62415C0.421602 3.27712 2.46748 4.28513 5.79202 2.68912ZM2.67671 66.9495C2.63021 65.5215 2.42098 62.2035 2.0955 62.8335C2.07225 66.4455 1.51428 72.1576 2.49072 73.8796C2.46747 72.0316 2.74646 69.1966 2.67671 66.9495ZM3.97863 31.6693C13.1618 30.8083 24.7163 31.8373 31.5979 30.3883C28.6221 29.4013 27.0412 26.4193 23.6934 25.4953C17.672 23.8153 10.4185 25.9993 3.44391 25.0543C3.42067 25.8943 3.39742 26.7343 3.37417 27.5743C9.11656 27.1963 19.8109 27.8683 26.367 29.0233C16.7886 29.3803 10.5115 27.5323 3.6764 28.8553C3.21143 29.3173 3.56016 30.9763 3.97863 31.6693ZM22.3217 24.1723C19.8574 21.4002 15.6727 21.4002 10.186 21.3792C7.48916 21.3792 3.56016 20.0772 3.53691 22.1772C7.16368 22.6813 15.6029 21.5472 17.8115 23.4373C13.1851 23.6683 7.02419 22.4712 3.49041 23.7523C8.90733 24.3403 15.4867 23.9203 22.3217 24.1723ZM3.88564 8.63216C3.95538 8.88416 3.88564 9.26216 4.21112 9.26216C4.16462 9.03116 4.23437 8.65316 3.88564 8.63216ZM2.74646 77.9956C2.58372 78.1216 2.97894 77.7856 2.74646 77.9956V77.9956ZM4.79233 79.9276C5.58278 78.9196 6.37323 80.2216 7.58216 79.9906C11.6507 79.2346 15.0217 74.2156 18.2765 71.4016C26.7855 64.0725 36.4569 55.9875 44.3381 49.5824C43.2919 49.2464 40.7811 50.1704 40.8741 48.8684C44.9193 49.5824 46.3607 47.8184 47.2442 45.5504C43.8499 45.0044 37.8518 46.0124 35.0387 44.9624C39.6187 44.5844 43.1292 44.5844 47.6162 44.6054C48.0811 43.8914 48.1044 42.2744 47.3604 41.1404C39.9674 41.1824 31.4584 42.4844 25.3673 40.9724C32.3419 41.0144 38.898 40.6574 45.6168 40.4684C41.4321 35.4703 28.6221 39.7124 21.2523 37.7384C26.3437 37.0033 36.0151 38.2634 41.525 36.9193C39.2002 34.3573 33.5508 34.9453 29.3428 35.0713C24.7396 35.2183 19.7644 36.3103 15.7424 34.7773C22.8797 35.1343 29.2963 33.5173 37.3868 34.2943C35.7594 31.2283 31.8536 32.2153 28.0176 32.1943C20.3689 32.1313 11.5344 32.2363 3.58341 32.2993C4.30411 45.8444 6.39648 64.8285 4.79233 79.9276ZM7.41942 20.3922C8.09363 19.7832 14.6032 20.5182 11.9761 19.8672C9.16306 20.1402 6.34998 18.7752 3.95538 19.6992C4.93182 20.0562 6.67546 19.8042 7.41942 20.3922ZM13.0456 18.6072C11.1624 17.0952 5.58278 17.5572 3.97863 18.1032C7.48916 17.6412 10.1162 19.5942 13.0456 18.6072ZM3.93213 72.3466C3.95538 66.4665 5.07131 56.9955 3.44391 51.5144C3.51366 59.7675 3.25793 65.5215 3.93213 72.3466ZM3.25793 84.3167C4.62959 84.5057 3.11843 82.8676 2.95569 82.4266C2.69996 83.3717 3.30442 83.5606 3.25793 84.3167ZM5.32705 7.09915C5.18756 7.22515 5.55953 6.88914 5.32705 7.09915V7.09915ZM3.90888 73.6066C3.74614 73.7326 4.14137 73.3966 3.90888 73.6066V73.6066ZM9.62803 16.3392C8.95382 15.4362 5.95476 14.6382 5.44329 16.2552C6.74521 16.1502 8.5586 17.2212 9.62803 16.3392ZM7.51241 3.99113C7.34967 4.11713 7.7449 3.78113 7.51241 3.99113V3.99113ZM8.76783 8.73716C27.6922 22.2192 48.0579 36.1003 67.7727 47.8604C78.2578 42.4004 87.3247 35.3443 96.2289 28.2883C105.133 21.2532 114.874 14.9322 122.639 6.78414C118.989 4.18013 114.386 5.58714 110.108 5.56614C100.855 5.52414 90.4168 6.36414 80.4199 5.86014C62.1698 4.95713 44.8263 6.25914 26.274 6.57414C19.5087 6.67914 12.5806 4.87313 9.11656 8.40116C8.93057 8.44316 8.72134 8.48516 8.76783 8.73716ZM9.58153 83.1827C9.44204 83.3087 9.81402 82.9937 9.58153 83.1827V83.1827ZM13.371 84.8417C17.486 84.3167 21.9963 84.8837 26.2972 84.7997C41.9668 84.5057 59.5427 83.9597 75.2122 83.6657C87.7897 83.4137 100.297 84.6317 111.503 84.1487C116.199 83.9387 120.989 83.7916 125.15 82.5526C125.313 80.5576 124.522 80.4526 124.569 78.1216C117.083 73.1656 107.993 65.4585 100.623 59.6205C97.8796 57.4365 95.2292 54.6855 92.7649 53.1525C91.3002 52.2284 88.0454 50.1914 86.5808 49.8554C83.4887 49.1834 76.3281 50.2964 75.3517 52.1234C80.3269 52.5644 82.5588 51.5774 85.8136 52.3545C82.1868 52.9005 78.2113 53.1105 73.9335 53.0475C71.8877 53.9505 71.8179 56.5545 69.6326 57.0585C65.5873 57.9825 61.9605 54.4965 61.0306 52.7745C59.8682 52.2285 57.5201 52.7324 56.4971 52.0394C57.4503 51.8714 59.2637 52.5014 59.6589 51.7874C56.5669 50.5694 53.1958 48.8264 49.5923 50.0024C47.128 50.8004 43.4547 55.1475 41.0136 57.0795C32.0861 64.1355 22.2287 72.3046 14.6032 78.5836C14.301 81.1876 12.9758 81.7756 12.3481 84.5267C12.7898 84.5267 12.8131 84.9257 13.371 84.8417ZM14.4172 20.2242C14.2545 20.3502 14.6497 20.0142 14.4172 20.2242V20.2242ZM14.2777 76.9876C14.1383 77.1136 14.5335 76.7776 14.2777 76.9876V76.9876ZM40.0139 55.1475C30.5052 60.8805 22.2985 69.5746 14.9984 76.3576C23.7864 69.7216 31.3887 61.9515 40.0139 55.1475ZM34.3877 4.26413C35.4572 4.30613 40.5719 4.47413 37.875 4.03313C37.1776 4.01213 36.4801 3.99113 35.7827 3.99113C30.4355 3.67612 25.7858 3.99112 21.4383 4.62113C24.7163 4.74713 30.4587 4.53713 34.3877 4.26413ZM38.898 5.29313C37.5263 4.91513 40.2929 4.95713 38.898 5.29313V5.29313ZM39.9441 5.31413C39.7814 5.46113 40.1766 5.12513 39.9441 5.31413V5.31413ZM41.3856 3.78112C40.9206 3.73912 38.8515 3.67612 39.9906 4.07512C40.4324 4.11713 42.5015 4.15913 41.3856 3.78112ZM38.5027 85.3877C38.3632 85.5137 38.7352 85.1987 38.5027 85.3877V85.3877ZM39.8976 85.4297C38.526 85.0307 41.2926 85.0937 39.8976 85.4297V85.4297ZM40.7113 54.8535C40.5719 54.9795 40.9438 54.6435 40.7113 54.8535V54.8535ZM42.4085 4.11713C41.0136 3.90712 44.4776 4.43213 42.4085 4.11713V4.11713ZM42.734 5.06213C42.5945 5.20914 42.9665 4.87313 42.734 5.06213V5.06213ZM62.2628 84.9677C61.3561 85.0097 67.4239 85.0097 64.7039 84.7157C57.0318 83.8547 47.9881 85.1147 40.9438 85.4507C46.942 85.3037 57.3341 85.1567 62.2628 84.9677ZM52.2891 39.9644C52.4519 40.0904 53.3121 41.7284 54.3583 41.2664C52.8006 40.4474 50.5687 38.5574 52.2891 39.9644ZM55.0325 41.9174C54.428 40.8884 56.5204 43.5974 55.0325 41.9174V41.9174ZM56.4041 42.8834C55.0325 42.5054 57.7758 42.5684 56.4041 42.8834V42.8834ZM66.0988 85.0517C64.7039 84.8417 68.1446 85.3667 66.0988 85.0517V85.0517ZM67.4937 84.7577C66.3778 84.1487 69.1908 85.7027 67.4937 84.7577V84.7577ZM68.8886 84.7997C72.2829 84.7577 75.9329 85.1987 77.9788 84.6737C76.7001 84.4217 71.5157 84.3797 68.8886 84.7997ZM71.7249 4.43213C70.3765 4.05412 73.1198 4.09613 71.7249 4.43213V4.43213ZM72.3526 47.0204C71.2134 47.5874 74.1893 45.6764 72.3526 47.0204V47.0204ZM81.5358 3.69713C78.8622 3.63413 74.5147 3.71812 73.4918 4.15913C76.2816 4.11713 79.6759 4.64213 81.5358 3.69713ZM74.2358 2.60512C72.8641 2.20612 75.6074 2.26912 74.2358 2.60512V2.60512ZM75.282 2.62612C73.887 2.41612 77.3278 2.94112 75.282 2.62612V2.62612ZM85.9065 48.9104C84.5814 46.7474 77.6766 47.4404 78.2113 49.6874C80.6524 49.0364 84.1629 49.3514 85.9065 48.9104ZM78.932 87.5297C78.7925 87.6767 79.1877 87.3407 78.932 87.5297V87.5297ZM79.025 84.6947C77.9323 85.5347 80.0014 83.7707 79.025 84.6947V84.6947ZM80.0712 84.7157C78.9785 85.5557 81.0476 83.7917 80.0712 84.7157V84.7157ZM82.21 4.03313C80.8616 3.63412 83.6049 3.69713 82.21 4.03313V4.03313ZM81.0244 87.5717C80.8849 87.7187 81.2801 87.3827 81.0244 87.5717V87.5717ZM81.8148 84.7577C84.0234 84.5897 87.1387 85.2827 88.7894 84.5897C86.3483 84.5267 83.9072 84.4847 81.4661 84.4217C81.1871 84.4847 80.7686 84.4217 80.7686 84.7157C81.2568 84.8627 81.3498 85.1357 81.8148 84.7577ZM82.4193 87.6137C81.0708 87.2147 83.8142 87.2777 82.4193 87.6137V87.6137ZM84.6744 4.09613C84.5116 4.22213 84.9069 3.88612 84.6744 4.09613V4.09613ZM91.1607 87.1727C88.9056 87.2987 84.0234 86.6267 83.4887 87.3197C85.7438 87.1937 90.6492 87.8657 91.1607 87.1727ZM129.87 24.3193C121.105 25.6003 111.759 26.3143 102.901 27.5113C102.227 28.4563 98.7397 29.9053 100.018 30.5983C107.435 30.4723 112.456 29.4013 119.245 29.7583C110.922 32.1103 96.8101 28.9603 93.2531 35.8063C97.2983 36.0163 104.529 34.6513 110.364 35.8693C103.715 36.2053 97.1124 36.4783 91.4862 37.0243C90.8352 37.9064 89.6263 38.2634 89.9983 40.1534C95.8802 39.2924 100.716 39.1454 106.063 40.1954C98.4375 41.1824 89.2776 38.7044 86.7667 43.5554C91.9512 43.5764 96.7171 42.1904 103.18 43.2824C98.0655 44.1434 91.2537 43.4084 87.069 45.1304C88.3244 47.1464 93.8343 45.4664 96.1127 46.5794C94.2528 46.8734 91.8117 46.6004 90.161 47.0834C99.2745 55.0845 110.48 63.5265 120.593 71.4016C123.848 73.9426 126.824 78.7306 131.939 78.2686C134.124 72.2626 131.636 66.0045 131.381 60.2715C130.799 47.7974 133.008 34.7773 132.078 20.8752C128.382 20.4972 124.639 21.6102 120.872 22.1982C114.061 23.2693 107.83 22.5763 104.715 26.2513C111.805 25.7473 122.663 24.3193 130.242 24.2773C130.102 24.3193 129.963 24.3193 129.87 24.3193ZM89.1846 4.81013C87.8129 4.43213 90.5795 4.49513 89.1846 4.81013V4.81013ZM89.4868 84.9257C88.2547 84.6737 92.0674 85.4507 89.4868 84.9257V84.9257ZM94.0668 4.62113C93.9273 4.74713 94.2993 4.41113 94.0668 4.62113V4.62113ZM92.9044 87.5297C91.5559 86.7107 94.0668 87.0887 92.9044 87.5297V87.5297ZM93.8575 51.9134C93.7181 52.0395 94.09 51.7034 93.8575 51.9134V51.9134ZM94.0203 84.7157C92.6486 84.5057 96.0894 85.0307 94.0203 84.7157V84.7157ZM95.7639 84.7577C95.6244 84.8837 96.0197 84.5477 95.7639 84.7577V84.7577ZM103.436 59.3685C102.901 57.8565 100.46 56.4075 99.321 56.4495C100.855 57.2895 101.785 58.6335 103.436 59.3685ZM105.273 3.27712C104.691 3.29812 102.111 3.04612 103.18 3.55012C103.761 3.52912 106.342 3.78112 105.273 3.27712ZM108.574 62.9595C106.807 62.2035 105.249 59.6625 103.785 59.7045C105.366 60.5865 107.063 63.0225 108.574 62.9595ZM106.668 3.31912C104.668 3.21412 112.805 3.59212 106.668 3.31912V3.31912ZM110.178 3.38212C110.015 3.50812 110.411 3.19312 110.178 3.38212V3.38212ZM132.078 19.9512C131.985 19.2162 131.567 18.7542 131.776 17.7462C124.871 18.0192 114.944 18.1452 111.061 22.3452C117.548 22.1562 124.522 20.1402 132.078 19.9512ZM110.968 65.2065C110.039 64.2405 111.991 66.0885 110.968 65.2065V65.2065ZM115.083 68.1466C114.293 67.8946 113.363 66.1515 112.666 66.8235C113.456 67.0755 114.386 68.8186 115.083 68.1466ZM113.898 86.0807C112.526 85.7027 115.293 85.7657 113.898 86.0807V86.0807ZM131.474 16.1502C131.822 14.0502 128.893 15.0372 126.964 15.1002C121.709 15.2682 117.385 15.5202 116.06 18.3342C121.082 17.4942 126.87 17.3892 131.474 16.1502ZM114.944 86.1227C114.781 86.2487 115.176 85.9127 114.944 86.1227V86.1227ZM125.313 76.5676C122.151 74.1526 118.641 70.4146 115.386 69.0916C118.896 71.2126 122.151 75.1816 125.313 76.5676ZM131.171 13.9452C130.242 11.0892 122.663 12.8322 121.035 14.3652C124.522 14.2812 128.056 14.3022 131.171 13.9452ZM124.011 8.10715C123.22 8.04415 121.942 9.13616 122.593 9.34616C122.639 8.52715 123.941 8.90516 124.011 8.10715ZM129.149 11.3622C128.498 11.1522 125.452 10.9632 124.941 11.9082C126.266 11.6562 128.103 11.8872 129.149 11.3622ZM126.685 77.8486C126.545 77.9746 126.917 77.6596 126.685 77.8486V77.8486ZM128.661 82.3216C127.289 81.9226 130.056 81.9856 128.661 82.3216V82.3216ZM130.776 3.21412C130.614 3.34012 131.009 3.00412 130.776 3.21412V3.21412ZM134.078 36.0793C134.264 37.1503 133.543 38.9984 134.333 39.5444C134.147 38.4944 134.868 36.6253 134.078 36.0793ZM134.008 65.0805C134.078 65.3325 134.008 65.7105 134.333 65.7105C134.264 65.4795 134.357 65.1015 134.008 65.0805ZM134.054 62.8755C134.24 63.3375 133.613 64.4925 134.357 64.4505C134.194 64.0095 134.822 62.8335 134.054 62.8755ZM135.682 67.9576C135.751 68.2095 135.682 68.5876 136.007 68.5876C135.937 68.3566 136.007 67.9786 135.682 67.9576ZM137.797 53.4885C138.565 53.6355 137.89 55.0425 138.076 55.6935C137.914 56.3235 138.146 58.5915 138.379 56.9535C138.379 54.1815 138.867 50.9894 137.89 49.0574C137.704 51.0104 138.193 52.2075 137.797 53.4885ZM137.96 47.8184C138.03 48.0704 137.96 48.4484 138.286 48.4484C138.216 48.2174 138.286 47.8394 137.96 47.8184ZM137.635 85.9757C137.356 86.0807 137.193 86.7947 137.611 86.9207C138.425 87.1517 138.402 85.7027 137.635 85.9757ZM138.402 83.1616C138.448 82.6156 138.146 82.3426 137.728 82.1956C137.751 82.6996 137.658 83.2877 138.402 83.1616Z" fill="#001830"/>
</svg>
